#!OML:ASF F:\VICON\USERDATA\INSTALL\rory3\rory3.ASF
:FULLY-SPECIFIED
:DEGREES
81
root 0.13340336563205024 17.89750676745512 33.68506793293054 -1.790559521735004 -4.350186674215577 -7.340715492220625
lfemur -24.72763327823813 -0.5429026709462195 -11.006635605426423
ltibia 39.59353310715555
lfoot -6.471393180352813 5.352794303089725
ltoes -3.819436604486652
rfemur -0.10575289873608718 6.195461250570943 34.75865754346844
rtibia 27.18519024999381
rfoot -18.754518875931158 -6.749073535825314
rtoes 7.337744519763249
lowerback 9.639280630799105 2.0660717214985325 6.706219848393139
upperback 0.5524280586111187 3.576620485985876 2.2558676736008683
thorax -4.7102299522539175 1.651443656891035 -1.6502946543837425
lowerneck -16.444210944488425 -2.8231389183393945 -1.9145394091955268
upperneck 20.16841109329025 -3.6545302432186735 1.2412974289722118
head 9.085929891327433 -1.742576402033505 0.2852789857154724
lclavicle -1.645183537616943e-15 1.189456247050859e-15
lhumerus -32.659577962701604 3.4405166878137834 83.4229315418152
lradius 23.8918588673365
lwrist 4.517002520955367
lhand -28.262340318876856 21.841018523121235
lfingers 7.12502
lthumb -1.6392367329497166 51.80630990955038
rclavicle -1.645183537616943e-15 1.189456247050859e-15
rhumerus -24.921908979903765 -10.769016244029515 -81.90451718994274
rradius 27.64850792210731
rwrist 2.354285069776558
rhand -17.868820806491996 23.330335618802163
rfingers 7.12502
rthumb 8.396865661093006 -6.486389345740051
82
root 0.161397214129594 17.823818827571035 33.49388571931271 -1.2406222363088664 -5.019674519023141 -7.746160636096615
lfemur -24.79290387102461 -2.5849340227868605 -9.92833728014784
ltibia 28.65730067801357
lfoot -6.333253025977904 7.423878045359433
ltoes -3.5949229261363005
rfemur 2.101109105039166 6.273993930196022 34.99503280122664
rtibia 25.670301377137
rfoot -19.901159424357385 -6.983938621345192
rtoes 5.718399497894964
lowerback 9.40152340647873 2.344656325136378 7.078457416945784
upperback 0.4976231751770136 3.965868097712488 2.217217304045268
thorax -4.614978736608687 1.839248652083905 -1.9819966961616706
lowerneck -16.659100845555987 -2.831057201101094 -1.8314767107039656
upperneck 19.967298348600412 -3.674324294924855 1.235917451477487
head 9.042353901686177 -1.7470008083578428 0.2650011900242761
lclavicle -1.910867056291864e-15 9.449097131971074e-16
lhumerus -33.5889478344093 4.91273003837792 82.79212636848531
lradius 22.610320507283202
lwrist 3.788417801345868
lhand -28.253434097525712 22.244515983365993
lfingers 7.12502
lthumb -1.6306226714459147 52.20882161840322
rclavicle -1.910867056291864e-15 9.449097131971072e-16
rhumerus -24.04979343478898 -9.944261621740305 -82.11086211979703
rradius 28.319515651296435
rwrist 1.6378271337098322
rhand -18.0063233495883 23.858744157988387
rfingers 7.12502
rthumb 8.2641595044106 -5.963561282066469
83
root 0.19826644915089003 17.751584123365816 33.377396848231264 -0.8168373832163602 -5.551855092129422 -7.872937259814794
lfemur -24.189441159004133 -4.323946024782024 -9.181267515177572
ltibia 19.96315444619561
lfoot -6.1007020917337895 8.534161620456256
ltoes -3.5282149120198674
rfemur 4.355334503950047 6.3832141314861 34.99966550825788
rtibia 24.877122731714465
rfoot -20.656982472517093 -6.741896014826038
rtoes 3.364066748094438
lowerback 9.14581405220016 2.5835479800628316 7.224007823786947
upperback 0.44896185985648185 4.271819381917801 2.161567712581133
thorax -4.512972408694478 1.9913462221136982 -2.1481969937108962
lowerneck -16.79581905659633 -2.8485927540880325 -1.759572297802978
upperneck 19.875526243884835 -3.711603304969976 1.2660565251590021
head 9.029649688421003 -1.7579522341742848 0.255722068212574
lclavicle -1.9703711763840406e-15 8.90531162779015e-16
lhumerus -34.39341035497233 6.491742559581232 82.06910768873539
lradius 21.20562041015225
lwrist 2.80290045708102
lhand -28.074098294390758 22.88491471061818
lfingers 7.12502
lthumb -1.4574026963807423 52.85030446008449
rclavicle -1.9703711763840406e-15 8.90531162779015e-16
rhumerus -23.349973032741058 -9.731809378980262 -82.12550785785318
rradius 28.69952611445389
rwrist 1.4234847811070042
rhand -18.094860506434813 24.07525350251257
rfingers 7.12502
rthumb 8.178705435622986 -5.749741676537164
84
root 0.23911679989028067 17.690328949194832 33.07205251770806 -0.663176360839763 -5.897276282814758 -7.743968656832974
lfemur -23.634979036327504 -5.250864288052702 -9.256027722078379
ltibia 15.16306780699658
lfoot -5.726480336685993 8.09590919630994
ltoes -3.395544255963853
rfemur 6.244243006391919 6.404339947033124 34.61410795944296
rtibia 25.062053874712838
rfoot -20.744263521584106 -5.9523029366080795
rtoes 0.5085009873572743
lowerback 8.931858169614458 2.7299264748706378 7.077872685097693
upperback 0.4071957407741934 4.4264410336584 2.05548579351274
thorax -4.442756920706175 2.0738110077370617 -2.206651786135914
lowerneck -16.83535753900081 -2.885646657740357 -1.7273366537809236
upperneck 19.888163940130696 -3.778713323213033 1.3118493448872428
head 9.041489544463877 -1.781260202886971 0.25266275640815333
lclavicle -2.1010982335776322e-15 7.705336832465902e-16
lhumerus -35.205308440376136 7.905179184768906 81.30351237989002
lradius 19.793230289615884
lwrist 1.6222440280054586
lhand -27.789413847790943 23.36842846190221
lfingers 7.12502
lthumb -1.1824381795399082 53.33652356543061
rclavicle -2.1010982335776322e-15 7.705336832465902e-16
rhumerus -22.985594291777396 -10.131672862988129 -82.04553143486437
rradius 28.81020031600249
rwrist 1.5486390484160157
rhand -18.158845186142518 24.042541203928252
rfingers 7.12502
rthumb 8.116944874640957 -5.783206504127391
